<?xml version="1.0" encoding="iso-8859-1"?>
<!-- Generator: Adobe Illustrator 19.0.0, SVG Export Plug-In . SVG Version: 6.00 Build 0)  -->
<svg version="1.1" id="Layer_1" xmlns="http://www.w3.org/2000/svg" xmlns:xlink="http://www.w3.org/1999/xlink" x="0px" y="0px"
	 viewBox="0 0 511.992 511.992" style="enable-background:new 0 0 511.992 511.992;" xml:space="preserve">
<g>
	<path style="fill:#434A54;" d="M53.327,490.652c-5.891,0-10.672-4.766-10.672-10.656V469.34c0-5.906,4.781-10.688,10.672-10.688
		s10.672,4.781,10.672,10.688v10.656C63.999,485.887,59.218,490.652,53.327,490.652z"/>
	<path style="fill:#434A54;" d="M458.648,490.652c-5.891,0-10.656-4.766-10.656-10.656V469.34c0-5.906,4.766-10.688,10.656-10.688
		s10.672,4.781,10.672,10.688v10.656C469.32,485.887,464.539,490.652,458.648,490.652z"/>
</g>
<g>
	<path style="fill:#965353;" d="M31.999,426.653c-5.905,0-10.671-4.765-10.671-10.655V288c0-5.891,4.766-10.656,10.671-10.656
		c5.875,0,10.656,4.766,10.656,10.656v127.998C42.655,421.889,37.874,426.653,31.999,426.653z"/>
	<path style="fill:#965353;" d="M479.992,426.653c-5.906,0-10.672-4.765-10.672-10.655V288c0-5.891,4.766-10.656,10.672-10.656
		c5.875,0,10.656,4.766,10.656,10.656v127.998C490.648,421.889,485.867,426.653,479.992,426.653z"/>
</g>
<path style="fill:#434A54;" d="M319.994,234.664c-3.781,0-7.093,1.969-8.983,4.922c-12.516-2.961-34.39-4.922-59.296-4.922
	c-38.875,0-70.39,4.781-70.39,10.671v42.664c0,5.891,31.515,10.656,70.39,10.656c24.906,0,46.78-1.953,59.296-4.906
	c1.891,2.953,5.202,4.906,8.983,4.906c5.875,0,10.656-4.766,10.656-10.656v-42.663C330.65,239.446,325.869,234.664,319.994,234.664z
	"/>
<rect x="74.656" y="362.656" style="fill:#A0D468;" width="138.67" height="42.688"/>
<rect x="298.646" y="362.656" style="fill:#ED5564;" width="138.67" height="42.688"/>
<rect x="298.646" y="319.996" style="fill:#FFCE54;" width="138.67" height="42.655"/>
<path style="fill:#965353;" d="M255.996,426.653c-5.906,0-10.672-4.765-10.672-10.655V288c0-5.891,4.766-10.656,10.672-10.656
	c5.875,0,10.656,4.766,10.656,10.656v127.998C266.652,421.889,261.871,426.653,255.996,426.653z"/>
<g>
	<path style="fill:#A85D5D;" d="M479.992,405.342H31.999c-5.905,0-10.671,4.766-10.671,10.656v53.342
		c0,5.875,4.766,10.656,10.671,10.656h447.993c5.875,0,10.656-4.781,10.656-10.656v-53.342
		C490.648,410.107,485.867,405.342,479.992,405.342z"/>
	<path style="fill:#A85D5D;" d="M501.32,298.656H10.656C4.765,298.656,0,293.89,0,288s4.766-10.656,10.656-10.656H501.32
		c5.891,0,10.672,4.766,10.672,10.656S507.211,298.656,501.32,298.656z"/>
</g>
<rect x="74.656" y="32.006" style="fill:#5D9CEC;" width="362.67" height="213.33"/>
<path style="fill:#656D78;" d="M437.32,256H74.655c-5.891,0-10.656-4.773-10.656-10.664V32.004c0-5.891,4.766-10.664,10.656-10.664
	H437.32c5.891,0,10.672,4.773,10.672,10.664v213.332C447.992,251.226,443.211,256,437.32,256z M85.327,234.664h341.322V42.668
	H85.327V234.664z"/>
<polygon style="opacity:0.1;fill:#FFFFFF;enable-background:new    ;" points="254.652,234.664 193.325,234.664 257.324,41.941 
	318.65,41.941 "/>
<g>
</g>
<g>
</g>
<g>
</g>
<g>
</g>
<g>
</g>
<g>
</g>
<g>
</g>
<g>
</g>
<g>
</g>
<g>
</g>
<g>
</g>
<g>
</g>
<g>
</g>
<g>
</g>
<g>
</g>
</svg>
