<?xml version="1.0" encoding="iso-8859-1"?>
<!-- Generator: Adobe Illustrator 16.0.0, SVG Export Plug-In . SVG Version: 6.00 Build 0)  -->
<!DOCTYPE svg PUBLIC "-//W3C//DTD SVG 1.1//EN" "http://www.w3.org/Graphics/SVG/1.1/DTD/svg11.dtd">
<svg version="1.1" id="Capa_1" xmlns="http://www.w3.org/2000/svg" xmlns:xlink="http://www.w3.org/1999/xlink" x="0px" y="0px"
	 width="572.679px" height="572.679px" viewBox="0 0 572.679 572.679" style="enable-background:new 0 0 572.679 572.679;"
	 xml:space="preserve">
<g>
	<g>
		<path d="M254.745,487.703c-10.098-7.956-22.338-13.77-34.272-18.666c-2.142-0.918-3.672,0.918-3.978,2.754h-0.306
			c-9.18-0.306-17.442,3.061-26.622,3.979c-3.06,0.306-4.59,3.06-3.978,5.202c-3.366,1.529-6.426,4.284-9.18,7.344
			c-0.306-0.612-0.612-1.224-1.224-1.836c-33.048-26.928-72.522-52.938-112.914-66.708c-1.53-0.612-2.448,0.306-3.06,1.224
			c0,0,0,0-0.306,0c-6.12-1.836-12.24-0.306-18.36,0.918c-6.12,1.225-11.934,2.754-17.442,5.509c-0.306,0-0.612,0-0.918,0
			c-1.836-1.225-4.59-1.225-6.12,0.611c-6.732,7.65-10.71,18.666-15.606,27.846c-0.612,1.53-0.612,2.755,0,3.673
			c-0.306,1.529,0.306,3.365,2.142,4.59c54.162,35.802,97.92,77.724,158.814,103.428c2.754,1.224,5.202,0,6.732-1.836
			c0.612,0.306,1.224,0.612,2.142,0.306c6.426-0.918,13.464-0.918,19.89-1.224c5.508-0.306,11.016,0.612,15.912-2.142
			c1.224-0.612,1.836-1.836,2.142-3.061c0.918,0.612,2.142,0.612,3.06,0c8.874-7.038,14.994-17.441,21.42-26.928
			c7.956-11.628,16.218-23.256,22.95-35.496c0.612-0.918,0.612-2.142,0.612-3.061C257.193,491.987,257.193,489.539,254.745,487.703z
			 M218.331,476.075c0.306-0.306,0.306-0.306,0.306-0.611c5.508,4.896,11.322,10.098,17.748,14.382
			c-5.202,0.306-10.404,0.611-15.606,0.611c-0.306-0.611-0.918-0.918-1.53-1.224c-4.284-2.142-8.568-3.978-13.158-5.813
			C210.375,482.195,214.965,480.053,218.331,476.075z M169.065,494.129c0.612,0.306,1.224,0.611,1.836,0.611l-0.306,0.307
			c-0.306,0-0.612-0.307-1.224-0.307c-7.344,0.612-14.382,3.061-21.42,5.202c-0.612,0-0.918,0.306-1.224,0.612
			c-3.672-2.754-7.038-5.202-10.71-7.956c7.956-1.225,15.606-2.448,23.256-4.896C162.639,490.151,166.005,492.292,169.065,494.129z
			 M164.475,503.921c-1.224,1.836-2.448,3.672-3.672,5.813c-0.306,0.612-0.612,1.224-0.612,1.836
			c-1.836-1.53-3.978-3.366-6.12-4.896C157.743,505.757,161.109,504.839,164.475,503.921z M150.399,482.501
			c-7.344,1.224-14.688,3.06-22.032,4.896c-3.06-2.142-6.12-4.284-9.486-6.426c6.426-1.836,12.852-3.672,19.278-6.12
			C142.443,477.605,146.421,480.053,150.399,482.501z M130.509,470.261c-6.12,1.836-12.24,3.978-18.36,6.426
			c-4.59-3.06-9.18-5.814-14.076-8.874c6.732-1.224,13.464-2.754,20.196-5.202C122.247,465.059,126.225,467.507,130.509,470.261z
			 M109.701,457.409c-6.732,1.53-13.158,3.366-19.278,5.814c-3.672-2.143-7.344-4.59-11.322-6.732
			c6.426-1.53,13.158-3.366,19.278-6.12C102.051,452.513,106.029,454.961,109.701,457.409z M89.505,444.557
			c-6.12,1.53-12.24,3.978-18.054,6.12c-0.612,0.306-0.918,0.306-1.224,0.611c-5.202-3.06-10.71-5.813-15.912-8.874
			c8.568,0,17.136-0.918,25.092-4.59C82.773,439.967,86.139,442.415,89.505,444.557z M43.911,432.929
			c6.12-1.53,11.934-2.754,16.83-6.732c0.306-0.306,0.306-0.611,0.306-0.611c3.978,2.754,7.956,5.508,11.934,7.955
			c-7.65,1.225-15.3,2.448-22.95,3.366c-1.53,0-2.142,1.225-2.448,2.143c-3.06-1.53-6.12-3.061-8.874-4.896
			C40.239,433.847,42.075,433.235,43.911,432.929z M166.923,555.023c-0.918,0.612-1.53,1.53-2.142,2.142
			c-27.846-12.546-54.162-28.151-78.948-46.206c-25.704-18.666-48.042-41.31-77.112-54.468c4.896-6.426,9.792-12.852,13.464-19.89
			c40.698,29.988,88.74,63.036,135.252,82.926c2.448,0.918,5.508-0.612,6.12-2.754c2.142,0.612,4.59,0.306,6.12-1.836
			c3.978-5.508,7.956-11.016,12.546-15.912c3.06-3.366,7.344-6.732,9.792-11.016c5.814,3.672,11.934,7.649,18.054,10.71
			c-7.956,4.59-14.688,13.464-19.89,20.502c-3.978,5.202-7.65,10.403-10.71,16.218C175.797,542.171,173.961,550.739,166.923,555.023
			z M206.703,555.329l-0.306-0.306c-5.202-3.366-12.546-1.836-18.666-0.918c-0.918,0-1.836,0.306-2.754,0.612
			c3.672-5.509,6.426-12.24,9.486-17.442l0.306-0.306c0.306,0,0.918,0.306,1.224,0.306c5.202-0.306,10.098-0.612,15.3-0.918
			c1.836,0,3.366-0.306,5.202-0.306C212.211,541.865,208.539,548.291,206.703,555.329z M225.063,522.587
			c-0.918,1.529-2.142,3.06-3.06,4.59c-7.038-0.612-14.994,0.611-22.338,1.529c3.06-4.283,6.12-8.567,9.486-12.546
			c0.918-1.224,2.142-2.447,3.06-3.672c6.426,0.612,13.158,0.918,19.278,0C229.347,515.855,227.205,519.221,225.063,522.587z
			 M238.527,502.697c-6.426,0-12.852,0.612-19.584,1.225c0.612-1.225,1.224-2.143,1.836-3.366c0.306-0.612,0.306-1.53,0-2.143
			v-0.306c7.038,0.612,13.77,0.918,20.808,0.306C240.363,499.637,239.445,501.167,238.527,502.697z"/>
		<path d="M328.797,314.201c-41.003-51.408-144.125-104.652-194.31-39.78c-1.836,1.53-3.978,2.754-5.814,4.59
			c-0.612,0-1.224,0.307-1.836,0.919c-81.702,62.118,74.358,176.868,150.552,164.016c23.561,2.143,47.429-9.486,60.893-30.6
			C359.091,381.521,350.829,342.047,328.797,314.201z M329.409,346.331c1.529,4.896,2.754,9.792,3.365,14.383c0,0,0,0-0.306,0
			c-4.896,2.142-9.486,4.59-14.382,6.426c-0.918-5.814-3.061-11.628-5.508-17.442C318.393,349.697,324.207,348.779,329.409,346.331z
			 M314.415,318.179c-6.732,1.529-13.158,3.06-19.891,3.366c-3.978-4.591-8.567-9.181-13.463-13.465
			c7.65-0.306,14.994-0.918,22.337-2.142C307.377,309.917,311.049,313.895,314.415,318.179z M294.831,298.595
			c-7.344,0.611-14.688,1.529-22.032,3.06c-3.06-2.448-6.12-4.59-9.486-6.731c-2.754-1.836-5.508-3.672-8.568-5.509
			c8.874,0.612,17.748,0,26.316-1.529C285.957,291.251,290.547,294.923,294.831,298.595z M270.963,280.847
			c-8.874,0.918-17.748,1.529-26.622,2.142c-7.344-3.979-14.994-7.956-22.95-11.016c8.262-0.307,16.524-1.836,24.48-4.896
			C254.439,270.749,263.007,275.645,270.963,280.847z M214.047,266.771c-0.918,0-1.53,0.611-1.836,1.224
			c-8.568-3.06-17.442-5.202-26.01-6.12c8.568-0.918,17.442-2.448,25.092-5.813c8.262,1.224,16.83,3.672,25.092,6.731
			C229.041,264.628,221.697,266.159,214.047,266.771z M190.179,255.754c-3.06,0.918-6.12,2.143-9.18,3.061
			c-1.224,0.306-1.53,1.53-1.224,2.448c-3.978-0.307-7.956-0.307-11.934,0.306C175.185,258.203,182.529,256.367,190.179,255.754z
			 M304.011,403.247c-26.01,51.408-83.231,20.196-118.728-2.447c-35.19-22.645-87.516-63.954-55.998-110.16
			c1.224,0,2.448-0.307,3.672-1.225c0.612-0.306,0.918-0.611,1.53-0.918c1.836,0.307,3.672-0.306,5.202-2.142
			c0.612-0.918,1.224-1.836,2.142-2.448c36.72-21.726,77.418-2.754,110.466,19.584C289.322,328.277,311.661,360.407,304.011,403.247
			z M301.562,330.419c6.426-0.307,12.853-1.225,18.666-3.979c2.143,3.672,4.284,7.038,5.814,10.71
			c-1.836,0.918-3.979,1.53-6.12,2.448c-3.366,1.224-7.038,2.142-10.71,2.754C306.765,338.375,304.316,334.397,301.562,330.419z
			 M311.354,418.241c1.836-3.978,3.061-8.874,3.672-14.076c0-0.306,0.307-0.611,0.307-0.918c3.365,0,6.731-0.306,10.098-1.224
			C321.759,408.143,317.169,413.651,311.354,418.241z M330.938,388.865c-2.142,0.918-3.978,2.143-6.12,3.061
			c-2.142,0.918-4.59,1.529-7.038,2.142c1.225-6.426,1.53-12.546,1.225-18.36c5.202-0.918,10.404-3.06,14.382-6.426
			C333.387,376.013,332.774,382.439,330.938,388.865z"/>
		<path d="M229.041,319.403c-19.584-13.158-58.446-36.414-78.336-14.994c-28.458,16.83,17.748,62.118,33.354,73.44
			c23.562,17.136,81.09,55.998,102.816,16.218c0.918-1.836,0.612-3.978-0.306-5.508
			C300.032,365.303,244.953,330.113,229.041,319.403z M187.425,309.611c-2.754,1.53-4.896,3.061-6.426,4.896
			c0,0,0-0.307-0.306-0.307c-5.814-2.447-12.852-3.365-19.584-3.672C169.371,306.245,178.245,306.857,187.425,309.611z
			 M155.295,317.261c7.956,0.611,15.606,1.529,23.256,1.224c-1.224,2.754-1.224,5.814-0.612,9.18c0,0-0.306,0-0.306-0.306
			c-6.732-0.612-13.158-0.306-20.196,0C156.213,323.993,155.295,320.321,155.295,317.261z M168.453,345.413
			c-3.366-4.283-6.426-8.567-8.568-12.852c5.814,0.306,11.628,0.612,17.748,0c0.612,0,0.918-0.306,1.224-0.612
			c1.53,5.508,4.896,10.71,8.568,15.606c-5.814-0.918-11.934-1.53-17.748-2.143C169.065,345.413,168.759,345.413,168.453,345.413z
			 M173.349,351.533c6.732,1.225,13.158,2.448,19.89,3.061c0.918,0.918,2.142,2.142,3.06,2.754
			c4.284,3.672,8.568,7.038,13.158,10.404c-7.038-1.837-14.076-2.143-21.114-2.143C182.835,361.019,177.939,356.123,173.349,351.533
			z M215.271,375.095c1.53,0.306,2.448-0.307,2.754-1.225c5.202,3.366,10.404,6.427,15.912,9.181
			c-7.038-0.918-14.076-0.612-21.42,0.306c-5.814-3.366-11.628-7.344-16.83-11.322C202.419,372.647,208.845,373.871,215.271,375.095
			z M226.899,390.395c5.202,0.306,10.404,0.612,15.606,1.224c2.142,0.307,3.366-1.529,3.366-3.365
			c7.344,2.754,14.994,5.201,22.95,6.426C257.499,399.881,242.505,397.126,226.899,390.395z M278.307,387.335
			c-0.612,0.918-1.53,1.836-2.448,2.447c-0.306-0.918-1.224-1.529-2.142-1.836c-18.36-4.59-34.272-14.076-49.572-24.786
			c-16.218-11.628-41.922-26.622-31.518-49.878c0.306-0.611,0.306-1.224,0.306-1.836c11.016,4.59,22.032,11.935,30.6,17.748
			c14.382,9.792,55.692,37.026,55.386,57.834C278.613,387.335,278.307,387.335,278.307,387.335z"/>
		<path d="M460.377,247.798c-33.966-47.735-88.74-92.718-141.066-119.646c0-0.612,0-1.224-0.612-1.836
			c-4.896-4.59-12.239-5.202-18.666-6.12c-7.344-1.224-14.687-1.53-22.031-1.836c0,0-0.306,0-0.306-0.306
			c-1.836-1.836-4.284-1.836-6.12-0.918c-0.612-0.307-0.918-0.612-1.836-0.307c-4.896,1.53-9.486,5.202-13.77,8.263
			c-4.896,3.365-9.486,7.037-14.076,10.71c-3.366,2.447-2.448,8.262,1.53,8.874c0,0.306,0.306,0.918,0.306,1.224
			c9.18,18.36,31.518,33.354,50.184,46.512c-15.912-7.956-33.048-14.688-48.96-21.114c-1.53-0.611-3.06,0-3.672,1.53
			c-4.284,0-8.568,1.225-12.546,2.448c-5.814,1.53-11.628,3.366-17.442,5.508c-1.224-0.306-2.448-0.612-3.672-0.918
			c-1.53-0.306-2.754,1.224-1.836,2.448c-7.956,0.918-10.404,13.158-11.016,19.89c-0.306,2.754,1.836,4.284,4.284,4.59
			c61.506,36.721,128.52,65.79,192.473,97.921h0.307c0.611,0.306,1.224,0.611,1.836,0.611c0.612,0.612,1.53,0.918,2.754,0.612
			c5.813-0.306,11.934-1.53,17.748-2.448c5.813-0.918,11.934-1.529,17.441-3.978c1.837-0.918,2.755-2.448,2.755-4.284
			c11.628-9.792,24.785-25.704,24.174-40.393l0,0C460.683,253.613,462.213,250.247,460.377,247.798z M431.307,234.947
			c-2.754,0.306-5.813,0.918-8.568,0.918c-3.978,0.306-7.956,0.306-11.934,0.306c-4.896-5.201-10.098-10.403-15.3-15.3
			c8.874,1.836,17.748,3.979,26.315,3.979C424.881,228.521,428.247,231.887,431.307,234.947z M405.909,208.937
			c2.754,2.754,5.201,5.508,7.955,8.262c-8.567-1.53-17.441-1.836-26.01-2.754c-3.672-3.366-7.649-6.732-11.628-10.098
			c9.486,1.836,18.666,3.978,28.152,4.896C404.99,209.243,405.603,209.243,405.909,208.937z M392.444,195.779
			c2.143,2.142,4.59,4.284,6.732,6.732c-9.792-1.53-19.89-2.755-29.682-3.979c-2.448-1.836-4.591-3.978-7.038-5.814
			c-1.836-1.836-3.979-3.365-5.814-5.201c10.71,2.142,21.726,4.59,32.742,5.508C390.608,193.943,391.526,194.861,392.444,195.779z
			 M367.047,173.134c4.59,3.979,9.18,7.65,13.464,11.629c-8.874-1.225-18.054-1.53-26.622-2.755c-0.918,0-1.53,0.307-1.836,1.225
			c-5.508-4.896-11.016-9.792-16.524-14.688c9.486,2.448,18.973,5.509,28.765,6.427
			C365.517,174.971,366.435,174.053,367.047,173.134z M345.933,155.387c4.896,3.978,9.792,7.955,14.382,11.934
			c-8.567-2.142-17.441-3.06-26.01-4.59c-1.53-0.307-2.754,0.918-3.06,2.142c-3.979-3.366-7.956-7.038-11.935-10.403
			c8.262,1.224,17.136,3.06,25.092,1.836C345.015,156.305,345.627,155.999,345.933,155.387z M298.809,130.601
			c5.202,0.611,10.71,1.529,15.912,0.306c8.568,6.426,16.83,12.852,25.092,19.584c-7.956-1.53-16.83-0.918-24.479-1.224
			c-0.612,0-1.225,0.306-1.53,0.611c-3.06-2.754-6.12-5.201-8.874-7.956c5.508,0.612,11.016,1.225,16.524,1.53
			c4.283,0.306,4.283-6.12,0-6.731c-7.956-0.918-16.219-1.225-24.175-1.53c-2.447-2.143-4.59-3.979-7.038-6.12
			C292.995,129.683,296.055,129.989,298.809,130.601z M282.897,199.756c5.202,2.448,10.404,4.896,15.606,7.038
			c-7.344,0-14.382,0.918-21.42,1.836c-0.306,0-0.612,0.307-0.918,0.307c-3.978-1.836-7.65-3.979-11.628-5.814
			c5.814,0,11.628-0.611,17.136-2.142C282.285,200.981,282.591,200.369,282.897,199.756z M362.15,245.044
			c-9.18-3.672-18.054-7.344-27.233-11.016c2.447-0.918,5.202-2.142,7.649-3.672C348.993,235.559,355.725,240.455,362.15,245.044z
			 M326.043,230.357c-4.59-1.836-9.181-3.672-13.464-5.508c3.672-0.918,7.037-2.143,10.403-3.673
			c3.366-1.529,0.612-5.813-2.142-5.508c-6.12,0.918-11.935,3.061-17.748,4.896c-6.12-2.754-12.24-5.202-18.359-7.956h-0.306
			c5.813-0.306,11.933-0.918,17.748-2.143c1.224-0.306,1.53-1.224,1.224-2.142c5.508,2.142,10.71,3.672,16.219,5.202
			c0.611,0.306,1.224,0,1.836-0.306c5.201,3.978,10.403,8.262,15.605,12.239C333.081,226.991,329.715,228.521,326.043,230.357z
			 M277.695,197.309c-7.65,0.918-15.3,1.529-22.95,0.918c-2.754-1.225-5.202-2.754-7.956-3.979c3.366-0.611,6.426-1.529,9.486-3.06
			c2.142-1.225,1.836-3.979,0.306-5.202C263.619,189.659,270.657,193.637,277.695,197.309z M231.183,183.845
			c4.59-1.225,9.18-2.143,13.158-4.896c3.978,2.142,8.262,4.59,12.24,6.732c-0.612-0.307-1.224-0.612-1.836-0.612
			c-5.814,0-11.628,2.448-17.136,3.978c-0.306,0-0.612,0.307-0.612,0.307c-3.366-1.53-6.732-3.061-10.404-4.284
			C228.123,184.763,229.653,184.151,231.183,183.845z M393.362,295.841c-61.506-33.049-123.317-67.933-188.801-93.024
			c0.918-3.366,2.142-6.12,3.978-9.18c0.918-1.53,1.53-3.366,1.836-4.896c0.306,0,0.612,0,0.918,0c0.612,0,0.918-0.306,1.53-0.306
			c22.644,17.441,52.938,26.315,78.642,37.638c29.376,12.852,59.058,25.398,89.352,36.414c5.814,2.142,7.956-6.732,2.448-8.874
			h-0.306c0-0.306-0.307-0.306-0.307-0.612c-40.697-40.086-89.352-71.298-130.661-110.466c3.978-1.836,7.956-3.978,11.016-7.038
			c2.448-2.448,5.202-5.202,7.344-8.567c48.959,44.063,104.04,85.985,148.715,134.334c-5.508,4.59-8.874,11.628-12.852,17.136
			C401.931,284.212,397.646,290.027,393.362,295.841z M427.329,289.721c-5.202,0-10.099,1.836-14.994,2.754
			c-1.225,0.306-2.448,0.612-3.672,0.918c2.447-2.448,4.896-5.202,7.038-7.956c0.611-0.612,0.918-1.225,1.529-2.143
			c0.307,0,0.307,0.307,0.612,0.307c4.284,0.918,8.568,1.529,13.158,1.529C429.776,286.661,428.553,288.191,427.329,289.721z
			 M439.568,273.197c-0.611,1.224-1.836,2.448-2.447,3.978c-5.509,0.612-10.71,1.53-16.219,1.53
			c2.143-3.06,4.284-6.426,5.509-10.098c4.896,0,10.098,0.306,14.993,0.306C440.793,270.443,440.181,271.667,439.568,273.197z
			 M444.465,261.569c-4.896-0.612-10.404-0.306-15.606,0.306c0.307-0.918,0-1.836-0.611-3.06l-0.307-0.307
			c5.814,0.307,11.628,0.307,17.442-0.306C445.383,259.426,444.771,260.345,444.465,261.569z M423.656,252.083
			c-2.447-3.366-4.896-6.426-7.649-9.792c7.344,0.918,14.994,0.918,21.726-1.224c2.754,2.448,5.508,5.202,8.568,7.649
			C438.65,248.716,430.694,250.553,423.656,252.083z"/>
		<path d="M569.007,120.809c-0.918-5.509-5.814-7.956-10.404-11.322c-5.202-3.672-10.404-7.038-15.605-10.404
			c-2.448-1.529-5.202,0-6.12,2.448c-7.65-0.306-16.219,3.366-21.114,9.18c-0.612,0.918-0.918,1.836-0.918,2.754
			c-1.53,0-2.448,1.53-2.448,3.366c-0.306,0-0.612,0.307-0.918,0.307c-3.672,2.447-6.426,5.508-9.18,8.874
			c-1.53-1.225-3.061-2.448-4.59-3.673c3.978-4.896,11.628-7.038,14.993-12.546c4.284-6.731,1.225-14.688-3.365-20.502
			c-0.307-0.306-0.612-0.306-0.612-0.611c0-1.53-0.918-2.755-2.448-2.755l0,0c-11.628-10.71-30.6-13.464-44.063-4.896
			c-1.53,0.918-2.143,2.754-2.143,3.978c-1.224-0.306-2.447-0.306-3.672,0.612c-1.836,0.918-3.366,2.143-4.896,3.672
			c-15.301-13.77-33.967-24.786-51.408-35.802c0.306-0.306,0.612-0.612,0.918-1.224c2.448-4.591,4.896-9.181,8.262-13.158
			c1.836-2.143,4.284-4.284,5.814-6.426c0.611-0.307,0.918-0.918,1.224-1.53c0.612-1.224,0.918-2.143,0.918-3.672
			c0-2.448-1.836-3.672-3.978-3.979c-0.612,0-1.225,0-2.143,0l0,0c-2.142-1.836-4.284-3.672-6.426-5.508
			c-3.978-3.978-7.65-7.956-11.016-12.24c-1.53-2.142-4.284-0.918-5.509,0.918c-2.142,0.307-4.283,0.918-6.426,1.225
			c-4.896,0.918-9.792,0.918-14.688,0.306c-3.061-0.306-4.284,2.754-3.979,5.202c-1.224,1.224-1.53,3.366-0.306,4.896
			c-9.18,7.345-16.83,17.748-24.174,26.929c-8.263,10.71-16.524,21.42-24.175,32.742c-0.306,0.611-0.306,0.918-0.306,1.529
			c-1.224,1.836-1.224,4.59,1.225,6.426c56.915,41.616,115.056,80.784,170.747,123.931c1.225,0.918,2.755,1.224,3.979,1.224
			c0.306,0.612,0.918,1.225,1.53,1.836c5.201,2.448,12.852,0.307,18.054-1.224c6.12-1.836,14.994-3.366,18.054-9.486
			c0-0.306,0-0.306,0.307-0.612l0,0c18.972-21.726,34.271-47.43,44.676-74.357C572.373,124.174,570.843,122.033,569.007,120.809z
			 M534.429,112.546c3.06,0,5.508,0.307,7.65-2.754v-0.306c0.918,0.918,1.836,1.836,2.754,2.448
			c-1.225,0.306-2.448,0.611-3.366,0.918c-4.284,0.918-8.874,1.224-13.158,1.224c-3.06,0-3.978,4.896-0.612,5.508
			c7.65,1.836,17.137,1.836,24.786-1.224c1.53,1.224,3.061,2.754,4.59,3.978c-2.447,0.307-4.896,0.918-7.038,1.53
			c-3.672,0.918-7.649,1.53-11.321,2.448c-3.061-1.836-6.426-3.061-9.181-4.59c-1.836-1.225-3.978-2.448-5.813-3.672
			c-0.918-0.612-1.836-1.225-2.448-1.836C524.942,114.077,529.227,112.546,534.429,112.546z M505.053,101.531L505.053,101.531
			c-5.814-0.612-11.934,0.612-17.136,2.754c0.611-0.918,1.224-1.836,1.836-2.448c2.142-3.365-1.836-7.038-4.896-6.12l0,0
			c0-0.306-0.306-0.611-0.611-0.611c5.508,0.306,11.016,0,16.523-1.53C503.522,95.716,505.358,98.471,505.053,101.531z
			 M493.119,111.935c-3.673,3.06-6.12,6.12-7.956,10.403c-0.307,0.307-0.307,0.918-0.307,1.225c-3.06-0.307-6.426-0.307-9.485-0.918
			c2.754-3.979,5.201-7.956,7.956-11.935c0.611,0.612,1.529,0.918,2.754,0.918c3.365-0.918,7.037-1.836,10.403-2.142
			C495.261,110.405,494.037,111.323,493.119,111.935z M495.566,133.048c-2.754,3.061-5.813,5.814-8.567,8.874
			c-1.53-3.978-5.202-7.344-8.263-9.485c-0.611-0.307-1.224-0.612-1.529-0.918c4.896,0.918,9.792,0.918,14.688-0.307
			C493.119,131.519,494.343,132.13,495.566,133.048z M487.61,86.537c1.225,0.306,2.448,0.918,4.284,1.53
			c-4.896,0.612-9.486,1.224-14.382,1.224c-0.306,0-0.306,0-0.306,0c-0.612-0.306-0.918-0.611-1.53-0.918
			c-0.918-0.611-1.836-1.224-2.754-1.529C477.513,85.619,482.409,85.313,487.61,86.537z M445.077,95.411
			c-2.755,3.672-4.896,7.956-6.427,12.24c-3.672-3.061-7.649-6.12-11.321-9.18c5.813-0.612,11.628-1.53,17.136-3.673
			C444.465,94.798,444.771,95.105,445.077,95.411z M424.881,82.559c3.06,2.142,6.426,4.284,9.486,6.426
			c-5.509,0.918-11.322,1.836-16.83,2.448c-3.366-2.448-6.427-4.591-9.792-6.732c4.896,0,10.098-0.306,14.993-0.612
			C423.656,83.477,424.269,83.17,424.881,82.559z M418.761,78.275c-5.508,0-10.71,0-16.218,0.306c-0.918,0-1.836,0.612-2.448,1.225
			c-3.061-1.836-6.12-3.979-9.18-5.509c6.731-0.306,13.157-0.611,19.89-1.836C413.253,74.296,416.007,76.132,418.761,78.275z
			 M403.461,66.34c-7.038,0.307-14.076,0.918-21.42,1.53c-0.612,0-0.918,0.307-1.225,0.307c-3.366-1.837-6.731-3.673-10.098-5.202
			c0.306,0,0.306,0,0.612,0c6.731-3.061,13.77-3.979,21.113-5.202C396.116,60.527,399.789,63.586,403.461,66.34z M373.778,55.325
			c1.53-1.836,3.061-3.366,4.591-5.202c1.836-2.448,3.978-4.896,6.119-7.344c3.366,0.306,7.038,0.306,10.404-0.306
			c-0.918,2.142-1.836,4.59-2.448,7.038c0,0.306,0,0.306,0,0.611c-1.224,0-2.447,0.612-3.06,1.53
			C383.877,51.653,378.675,52.876,373.778,55.325z M399.482,33.599c-0.611,0.918-1.224,1.836-1.836,3.06
			c-3.366,0.306-6.426,0.918-9.792,1.224c0.918-1.529,1.53-3.06,2.448-4.59c0.306-0.918,0.306-1.836,0-2.754
			c0-0.306-0.306-0.306-0.306-0.306c4.283,0.306,8.262,0.306,12.239,0C401.318,31.457,400.4,32.681,399.482,33.599z M381.123,17.687
			c3.06-0.307,7.038-0.612,9.792-2.448c1.836,2.448,3.978,4.896,6.119,7.038c-2.754,0-5.508,0-8.262,0.306
			c-1.529,0-2.448,0.918-3.06,1.836c-1.836-1.224-3.672-2.447-5.202-3.365c-1.836-1.225-3.366-2.143-5.202-3.061
			C376.839,17.687,378.98,17.687,381.123,17.687z M491.589,197.92c-0.307,0.612-0.307,1.225-0.307,1.836
			c-53.243-44.369-110.159-87.516-171.054-120.869c9.181-9.181,17.748-18.666,26.316-28.152
			c7.344-8.568,15.912-17.748,21.114-27.846c2.447,1.836,4.896,3.672,7.344,5.508c1.224,1.224,2.754,2.754,4.284,3.978
			c-3.673,3.672-6.732,8.263-9.792,12.24c-4.591,5.814-8.874,11.934-12.547,18.054c-1.836,3.366,2.143,6.732,5.202,4.59
			c22.95,17.137,47.124,33.66,70.992,49.572c1.53,1.225,3.366,0.918,4.896,0.307c1.224,0.918,3.365,1.224,4.59-0.918
			c2.448-4.284,5.202-8.568,8.567-12.547c3.366-3.672,7.038-6.731,10.404-10.403c1.224-1.225,1.53-2.754,1.224-3.979
			c0.612,0,1.225,0,2.143,0c1.836,1.53,3.672,3.366,5.813,4.896c2.448,2.142,5.202,5.202,8.568,6.12
			c-6.732,7.956-11.934,16.83-16.218,26.315c-0.612,1.225-0.307,2.754,0,3.672c0,0.918,0.306,1.836,0.918,2.448
			c-1.225-0.918,0.612,1.224,0.612,1.224c0.611,0.612,1.836,1.225,2.754,1.837c1.836,0.918,3.672,1.836,5.508,3.365
			c3.366,2.754,5.202,7.345,8.874,9.486c0.611,0.306,1.224,0.306,1.529,0.612c1.225,2.447,3.979,3.978,6.427,2.142
			c9.792-7.038,21.726-15.912,26.622-26.928l0.306,0.306c1.836,1.836,3.978,3.672,6.12,5.508c1.836,1.225,3.672,2.754,5.813,3.979
			c-6.731,7.649-11.628,17.441-16.83,26.01C504.747,172.829,497.097,185.069,491.589,197.92z M507.501,199.756
			c-2.143,0.918-4.59,1.836-7.038,2.755c2.754-3.673,5.202-7.65,7.956-11.322c5.508-0.612,11.016-1.836,16.523-3.366
			c-1.529,2.448-2.754,4.896-4.283,7.344C515.763,195.473,512.091,198.227,507.501,199.756z M530.145,178.336
			c-0.306,0-0.612,0-0.918,0c-5.202,0.918-10.098,2.143-15.3,3.979c2.448-3.979,4.896-7.956,7.344-12.24
			c4.896-0.612,9.792-0.918,14.688-1.53C533.816,171.911,531.98,174.971,530.145,178.336z M541.161,158.752
			c-4.896,0-9.486,0.918-14.383,2.143c1.53-2.754,3.366-5.508,4.896-8.263c4.284,0.612,8.568,0.918,12.852,0.307
			C543.303,155.081,542.079,156.917,541.161,158.752z M548.811,144.983c-4.896,0.612-9.486,1.53-14.076,1.836
			c1.53-3.061,2.754-6.12,3.672-9.18c3.366-0.307,5.202-3.061,4.591-6.12c4.59-0.307,9.485-0.612,13.77-1.53
			C554.318,135.191,551.564,140.086,548.811,144.983z"/>
	</g>
</g>
<g>
</g>
<g>
</g>
<g>
</g>
<g>
</g>
<g>
</g>
<g>
</g>
<g>
</g>
<g>
</g>
<g>
</g>
<g>
</g>
<g>
</g>
<g>
</g>
<g>
</g>
<g>
</g>
<g>
</g>
</svg>
